<svg width="20" height="16" viewBox="0 0 20 16" fill="none" xmlns="http://www.w3.org/2000/svg">
<path d="M2.35404 1.06065C2.15878 0.865383 2.15878 0.548801 2.35404 0.353539C2.5493 0.158277 2.86589 0.158277 3.06115 0.353539L16.4962 13.7886C16.6914 13.9838 16.6914 14.3004 16.4962 14.4957C16.3009 14.6909 15.9843 14.6909 15.7891 14.4957L2.35404 1.06065Z" fill="#7A8C97"/>
<path d="M2.77799 2.89878C1.56214 4.06225 0.626771 5.51638 0.0833144 7.1493C-0.0283799 7.48484 -0.0274644 7.84755 0.0842299 8.1831C1.46729 12.3322 5.38327 15.3259 9.9996 15.3259C11.5278 15.3259 12.9792 14.9978 14.2875 14.4083L11.993 12.1138C11.3721 12.3917 10.6939 12.5394 10.0006 12.5394C8.70725 12.5394 7.46689 12.0256 6.5524 11.1111C5.63788 10.1966 5.12412 8.95625 5.12412 7.66294C5.12412 6.96956 5.27179 6.29141 5.54971 5.67053L2.77799 2.89878Z" fill="#7A8C97"/>
<path d="M7.23139 7.3522C7.21988 7.45489 7.21402 7.55861 7.21402 7.66294C7.21402 8.40198 7.5076 9.11074 8.03018 9.63332C8.55274 10.1559 9.26151 10.4495 10.0006 10.4495C10.1049 10.4495 10.2086 10.4436 10.3113 10.4321L7.23139 7.3522Z" fill="#7A8C97"/>
<path d="M14.2234 10.1016L16.8707 12.7489C18.2583 11.5367 19.3225 9.96375 19.9169 8.1766C20.0283 7.84128 20.0283 7.47903 19.9169 7.14279C18.5329 2.99366 14.6178 0 10.0015 0C8.2934 0 6.68134 0.409731 5.25797 1.13616L7.56189 3.44008C8.297 3.01559 9.13696 2.78653 10.0006 2.78653C11.2939 2.78653 12.5342 3.30029 13.4487 4.2148C14.3632 5.1293 14.877 6.36964 14.877 7.66294C14.877 8.52652 14.6479 9.36648 14.2234 10.1016Z" fill="#7A8C97"/>
<path d="M9.1358 5.01399L12.6495 8.52769C12.7398 8.25102 12.7871 7.95942 12.7871 7.66294C12.7871 6.92391 12.4935 6.21515 11.9709 5.69257C11.4483 5.17 10.7396 4.87642 10.0006 4.87642C9.70407 4.87642 9.41248 4.92366 9.1358 5.01399Z" fill="#7A8C97"/>
</svg>
