<svg width="20" height="16" viewBox="0 0 20 16" fill="none" xmlns="http://www.w3.org/2000/svg">
<path d="M10.0001 10.4495C10.7391 10.4495 11.4479 10.1559 11.9705 9.63332C12.493 9.11074 12.7866 8.40198 12.7866 7.66295C12.7866 6.92391 12.493 6.21515 11.9705 5.69257C11.4479 5.17 10.7391 4.87642 10.0001 4.87642C9.26105 4.87642 8.55229 5.17 8.02972 5.69257C7.50714 6.21515 7.21356 6.92391 7.21356 7.66295C7.21356 8.40198 7.50714 9.11074 8.02972 9.63332C8.55229 10.1559 9.26105 10.4495 10.0001 10.4495Z" fill="black" fill-opacity="0.4"/>
<path fill-rule="evenodd" clipRule="evenodd" d="M0.0828425 7.1493C1.46496 2.99644 5.38189 0 10.001 0C14.6174 0 18.5324 2.99366 19.9164 7.14279C20.0279 7.47903 20.0279 7.84128 19.9164 8.1766C18.5352 12.3294 14.6174 15.3259 9.99916 15.3259C5.38281 15.3259 1.46682 12.3322 0.0837714 8.1831C-0.0279238 7.84755 -0.0279238 7.48485 0.0837714 7.1493H0.0828425ZM14.8765 7.66295C14.8765 8.95625 14.3627 10.1966 13.4482 11.1111C12.5337 12.0256 11.2934 12.5394 10.0001 12.5394C8.70678 12.5394 7.46644 12.0256 6.55194 11.1111C5.63743 10.1966 5.12367 8.95625 5.12367 7.66295C5.12367 6.36964 5.63743 5.1293 6.55194 4.2148C7.46644 3.30029 8.70678 2.78653 10.0001 2.78653C11.2934 2.78653 12.5337 3.30029 13.4482 4.2148C14.3627 5.1293 14.8765 6.36964 14.8765 7.66295Z" fill="black" fill-opacity="0.4"/>
</svg>
