<svg width="16" height="20" viewBox="0 0 16 20" fill="none" xmlns="http://www.w3.org/2000/svg">
<path fillRule="evenodd" clipRule="evenodd" d="M7.85714 0C6.53106 0 5.25929 0.526784 4.32161 1.46447C3.38393 2.40215 2.85714 3.67392 2.85714 5V7.85714C2.09938 7.85714 1.37266 8.15816 0.836838 8.69398C0.30102 9.2298 0 9.95652 0 10.7143V17.1429C0 17.9006 0.30102 18.6273 0.836838 19.1632C1.37266 19.699 2.09938 20 2.85714 20H12.8571C13.6149 20 14.3416 19.699 14.8774 19.1632C15.4133 18.6273 15.7143 17.9006 15.7143 17.1429V10.7143C15.7143 9.95652 15.4133 9.2298 14.8774 8.69398C14.3416 8.15816 13.6149 7.85714 12.8571 7.85714V5C12.8571 2.2381 10.619 0 7.85714 0ZM11.4286 7.85714V5C11.4286 4.0528 11.0523 3.14439 10.3825 2.47462C9.71275 1.80485 8.80434 1.42857 7.85714 1.42857C6.90994 1.42857 6.00153 1.80485 5.33176 2.47462C4.66199 3.14439 4.28571 4.0528 4.28571 5V7.85714H11.4286Z" fill="#0091EA"/>
</svg>
