<svg width="20" height="20" viewBox="0 0 20 20" fill="none" xmlns="http://www.w3.org/2000/svg">
<path fillRule="evenodd" clipRule="evenodd" d="M16.8564 17.279C17.8503 16.3451 18.642 15.2173 19.1827 13.9653C19.7234 12.7133 20.0016 11.3638 20 9.99999C20 4.47692 15.5231 0 10 0C4.47693 0 6.67611e-06 4.47692 6.67611e-06 9.99999C-0.00157128 11.3638 0.276588 12.7133 0.817289 13.9653C1.35799 15.2173 2.14974 16.3451 3.14359 17.279C4.99686 19.0296 7.45061 20.0034 10 20C12.5494 20.0034 15.0031 19.0296 16.8564 17.279ZM3.99488 15.961C4.71496 15.0601 5.62873 14.333 6.66835 13.8338C7.70796 13.3345 8.8467 13.0758 10 13.0769C11.1533 13.0758 12.292 13.3345 13.3317 13.8338C14.3713 14.333 15.285 15.0601 16.0051 15.961C15.2195 16.7546 14.2842 17.3842 13.2533 17.8134C12.2225 18.2427 11.1166 18.463 10 18.4615C8.88336 18.463 7.77754 18.2427 6.7467 17.8134C5.71585 17.3842 4.78049 16.7546 3.99488 15.961ZM13.8462 6.92307C13.8462 7.94314 13.4409 8.92142 12.7196 9.64271C11.9983 10.364 11.0201 10.7692 10 10.7692C8.97994 10.7692 8.00165 10.364 7.28036 9.64271C6.55907 8.92142 6.15385 7.94314 6.15385 6.92307C6.15385 5.90301 6.55907 4.92473 7.28036 4.20343C8.00165 3.48214 8.97994 3.07692 10 3.07692C11.0201 3.07692 11.9983 3.48214 12.7196 4.20343C13.4409 4.92473 13.8462 5.90301 13.8462 6.92307Z" fill="#0091EA"/>
</svg>
