<svg width="242" height="125" viewBox="0 0 242 125" fill="none" xmlns="http://www.w3.org/2000/svg">
<g filter="url(#filter0_b_3513_5077)">
<path d="M250 125C250 108.585 246.767 92.3303 240.485 77.1646C234.203 61.9989 224.996 48.219 213.388 36.6116C201.781 25.0043 188.001 15.7969 172.835 9.51506C157.67 3.23322 141.415 -7.17533e-07 125 0C108.585 7.17533e-07 92.3303 3.23322 77.1646 9.51506C61.9989 15.7969 48.219 25.0043 36.6116 36.6117C25.0043 48.219 15.7969 61.9989 9.51505 77.1646C3.23322 92.3303 -1.43506e-06 108.585 0 125L125 125H250Z" fill="url(#paint0_linear_3513_5077)" fill-opacity="0.3"/>
</g>
<defs>
<filter id="filter0_b_3513_5077" x="-3" y="-3" width="256" height="131" filterUnits="userSpaceOnUse" color-interpolation-filters="sRGB">
<feFlood flood-opacity="0" result="BackgroundImageFix"/>
<feGaussianBlur in="BackgroundImage" stdDeviation="1.5"/>
<feComposite in2="SourceAlpha" operator="in" result="effect1_backgroundBlur_3513_5077"/>
<feBlend mode="normal" in="SourceGraphic" in2="effect1_backgroundBlur_3513_5077" result="shape"/>
</filter>
<linearGradient id="paint0_linear_3513_5077" x1="65.0183" y1="60.4396" x2="250" y2="236.264" gradientUnits="userSpaceOnUse">
<stop stop-color="white"/>
<stop offset="1" stop-color="white" stop-opacity="0"/>
</linearGradient>
</defs>
</svg>
