<svg width="242" height="154" viewBox="0 0 242 154" fill="none" xmlns="http://www.w3.org/2000/svg">
<g filter="url(#filter0_b_3513_5076)">
<path d="M250 127C250 110.585 246.767 94.3303 240.485 79.1646C234.203 63.9989 224.996 50.219 213.388 38.6117C201.781 27.0043 188.001 17.7969 172.835 11.5151C157.67 5.23322 141.415 2 125 2C108.585 2 92.3303 5.23322 77.1646 11.5151C61.9989 17.7969 48.219 27.0043 36.6116 38.6117C25.0043 50.219 15.7969 63.9989 9.51505 79.1646C3.23322 94.3303 -1.43506e-06 110.585 0 127L125 127H250Z" fill="url(#paint0_linear_3513_5076)" fill-opacity="0.3"/>
</g>
<g filter="url(#filter1_b_3513_5076)">
<circle cx="229" cy="60" r="60" fill="url(#paint1_linear_3513_5076)" fill-opacity="0.3"/>
</g>
<defs>
<filter id="filter0_b_3513_5076" x="-3" y="-1" width="256" height="131" filterUnits="userSpaceOnUse" color-interpolation-filters="sRGB">
<feFlood flood-opacity="0" result="BackgroundImageFix"/>
<feGaussianBlur in="BackgroundImage" stdDeviation="1.5"/>
<feComposite in2="SourceAlpha" operator="in" result="effect1_backgroundBlur_3513_5076"/>
<feBlend mode="normal" in="SourceGraphic" in2="effect1_backgroundBlur_3513_5076" result="shape"/>
</filter>
<filter id="filter1_b_3513_5076" x="166" y="-3" width="126" height="126" filterUnits="userSpaceOnUse" color-interpolation-filters="sRGB">
<feFlood flood-opacity="0" result="BackgroundImageFix"/>
<feGaussianBlur in="BackgroundImage" stdDeviation="1.5"/>
<feComposite in2="SourceAlpha" operator="in" result="effect1_backgroundBlur_3513_5076"/>
<feBlend mode="normal" in="SourceGraphic" in2="effect1_backgroundBlur_3513_5076" result="shape"/>
</filter>
<linearGradient id="paint0_linear_3513_5076" x1="65.0183" y1="62.4396" x2="250" y2="238.264" gradientUnits="userSpaceOnUse">
<stop stop-color="white"/>
<stop offset="1" stop-color="white" stop-opacity="0"/>
</linearGradient>
<linearGradient id="paint1_linear_3513_5076" x1="200.209" y1="29.011" x2="289" y2="113.407" gradientUnits="userSpaceOnUse">
<stop stop-color="white"/>
<stop offset="1" stop-color="white" stop-opacity="0"/>
</linearGradient>
</defs>
</svg>
